<svg width="30" height="30" viewBox="0 0 30 30" fill="none" xmlns="http://www.w3.org/2000/svg">
<g clip-path="url(#clip0_531_105)">
<path d="M10.2243 26.4292L12.9842 25.3473C13.2147 25.2584 13.2466 25.3058 13.0799 25.4895L12.7615 25.8382C12.7431 25.8591 12.7463 25.8771 12.7709 25.8922L12.8817 25.9603C12.9063 25.9754 12.908 25.994 12.8868 26.0161C12.7693 26.1311 12.698 26.265 12.673 26.4177C10.6469 27.2006 8.6075 28.4141 7.11836 25.9083L5.51355 21.9701C5.28051 20.9495 5.31742 20.0747 5.62428 19.3458C7.65835 14.511 9.70761 9.68261 11.7721 4.86062C11.9022 4.55428 12.1149 4.46089 12.4102 4.58043C12.4611 4.60173 12.5073 4.63279 12.5461 4.67182C12.585 4.71086 12.6157 4.75711 12.6367 4.80794C12.6576 4.85876 12.6683 4.91316 12.6682 4.96802C12.668 5.02288 12.657 5.07713 12.6358 5.12767C10.6094 9.94422 8.58437 14.756 6.5608 19.563C5.82689 21.3064 7.15007 23.51 7.82086 25.1314C8.27566 26.231 9.07682 26.6636 10.2243 26.4292Z" fill="#525C61"/>
<path d="M16.8539 2.71678C16.8925 2.83193 16.8245 2.90997 16.6499 2.9509C16.7931 2.87411 16.9062 2.8842 16.9894 2.98117C17.0425 3.0417 17.0538 3.10841 17.0231 3.1813C16.9143 3.44539 16.7317 3.6498 16.4753 3.79454C16.1055 4.01069 15.8796 4.21595 15.7978 4.41034C13.9149 8.89162 12.0278 13.3729 10.1366 17.8543C9.53478 19.2796 9.57602 20.3071 10.4435 21.559C11.0305 22.4068 12.657 21.4521 13.1883 21.0268C13.4913 20.7825 13.7483 20.4127 13.9591 19.9175C15.6027 16.0303 17.2403 12.143 18.8719 8.25559C19.033 7.87289 19.148 7.5065 19.6494 7.63179C19.7068 7.64588 19.7605 7.67228 19.8067 7.70918C19.8529 7.74607 19.8906 7.7926 19.9172 7.84557C19.9438 7.89853 19.9587 7.95669 19.9608 8.01605C19.9629 8.07541 19.9523 8.13457 19.9295 8.18949C18.3097 12.0318 16.6942 15.8707 15.0833 19.706C14.7531 20.4931 14.4476 21.0462 14.1667 21.3653C13.18 22.4946 10.576 23.7243 9.52267 21.899C8.68989 20.4543 8.54049 19.2293 9.21894 17.6092C11.0929 13.1349 12.9753 8.66473 14.8661 4.19869C15.205 3.39626 15.8677 2.90229 16.8539 2.71678Z" fill="#465056"/>
<path d="M16.8539 2.71678C16.8925 2.83193 16.8245 2.90997 16.6499 2.9509C16.7931 2.87411 16.9062 2.8842 16.9894 2.98117C17.0425 3.0417 17.0538 3.10841 17.0231 3.1813C16.9143 3.44539 16.7317 3.6498 16.4753 3.79454C16.1055 4.01069 15.8796 4.21595 15.7978 4.41034C13.9149 8.89162 12.0278 13.3729 10.1366 17.8543C9.53478 19.2796 9.57602 20.3071 10.4435 21.559C11.0305 22.4068 12.657 21.4521 13.1883 21.0268C13.4913 20.7825 13.7483 20.4127 13.9591 19.9175C15.6027 16.0303 17.2403 12.143 18.8719 8.25559C19.033 7.87289 19.148 7.5065 19.6494 7.63179C19.7068 7.64588 19.7605 7.67228 19.8067 7.70918C19.8529 7.74607 19.8906 7.7926 19.9172 7.84557C19.9438 7.89853 19.9587 7.95669 19.9608 8.01605C19.9629 8.07541 19.9523 8.13457 19.9295 8.18949C18.3097 12.0318 16.6942 15.8707 15.0833 19.706C14.7531 20.4931 14.4476 21.0462 14.1667 21.3653C13.18 22.4946 10.576 23.7243 9.52267 21.899C8.68989 20.4543 8.54049 19.2293 9.21894 17.6092C11.0929 13.1349 12.9753 8.66473 14.8661 4.19869C15.205 3.39626 15.8677 2.90229 16.8539 2.71678Z" fill="#465056"/>
<path d="M16.8535 2.71636C18.1282 2.36802 20.3062 3.59416 21.4823 4.12142C22.1142 4.4041 22.6007 4.85085 22.9418 5.46167L23.0737 5.78536C23.2509 6.50831 23.2223 7.1482 22.9879 7.70503C20.8579 12.7819 18.7225 17.8559 16.5818 22.927C15.653 25.1248 14.8442 25.5852 12.6721 26.4175C12.6971 26.2647 12.7684 26.1308 12.8859 26.0158C12.9071 25.9938 12.9054 25.9752 12.8808 25.96L12.77 25.892C12.7454 25.8768 12.7422 25.8588 12.7606 25.8379L13.079 25.4893C13.2457 25.3056 13.2138 25.2582 12.9833 25.3471L10.2234 26.4289C12.0597 25.6555 14.5975 25.1649 15.464 23.1233C17.6378 17.9934 19.8012 12.8585 21.9542 7.71862C22.5082 6.39828 22.3064 5.48913 20.9677 4.91489C19.7848 4.40801 17.7044 3.14965 16.4749 3.79411C16.7313 3.64937 16.9139 3.44496 17.0227 3.18087C17.0533 3.10798 17.0421 3.04127 16.9889 2.98074C16.9058 2.88377 16.7926 2.87368 16.6495 2.95047C16.824 2.90954 16.892 2.8315 16.8535 2.71636Z" fill="#3A454B"/>
</g>
<defs>
<clipPath id="clip0_531_105">
<rect width="22.3702" height="22.3702" fill="white" transform="translate(0 8.44189) rotate(-22.1707)"/>
</clipPath>
</defs>
</svg>
